# This file uses centimeters as units for non-parametric coordinates.

mtllib ICE_spawn.mtl
g default
v 42.788494 -19.163569 47.087198
v 32.080896 -39.979627 64.319034
v 14.473689 -44.658253 47.025612
v -4.895887 -46.694071 47.020673
v -21.484545 -48.019994 64.142753
v -39.424790 -36.388992 48.923767
v -45.814321 -9.851074 47.110049
v -43.433587 9.654414 47.504222
v -34.598704 27.412244 49.381583
v -23.418931 40.449663 47.232021
v -4.790563 43.209552 45.484096
v 14.473689 47.926461 55.532633
v 33.868773 36.394077 54.026335
v 42.788494 12.372146 49.398640
v 50.966056 0.167059 49.178798
v 48.971845 -22.391184 27.789429
v 37.788904 -43.545535 27.710482
v 16.177170 -51.919583 27.717797
v -6.256999 -54.277485 27.711817
v -24.863096 -43.046511 28.718695
v -30.655461 -34.260122 27.456085
v -53.649425 -11.605312 27.815595
v -45.562809 11.181607 25.433887
v -35.165471 31.557159 29.017426
v -27.710700 46.653833 27.956924
v -6.048764 47.186338 27.620311
v 16.177161 51.266626 27.968114
v 40.671330 44.597240 29.515852
v 48.971849 21.738255 27.896482
v 42.677741 -0.093438 27.995302
v 40.341373 -17.983112 9.613032
v 30.040684 -34.110782 7.031919
v 13.645934 -37.928632 9.554813
v -4.615878 -39.848008 9.550156
v -20.358175 -36.110229 13.440710
v -37.014517 -27.017047 7.246126
v -35.753940 -9.203230 9.634383
v -36.656184 9.159109 8.292705
v -35.725490 25.933936 9.719622
v -22.079576 32.876973 9.749421
v -4.531134 35.921072 10.754755
v 13.645921 41.975649 9.758589
v 31.589440 33.978275 6.362635
v 40.341377 17.939026 9.700279
v 38.696856 0.266892 8.025016
v 20.170684 -8.958475 -8.552036
v 13.223977 -15.383803 -13.624180
v 6.822967 -16.885639 -8.581152
v -2.307939 -17.845336 -8.583610
v -11.074000 -19.992484 -1.815002
v -17.147617 -12.533875 -12.946243
v -14.156865 -4.568526 -8.541386
v -13.760302 4.339230 -10.999821
v -17.862743 13.000056 -8.498741
v -11.039788 13.799711 -8.483897
v -2.392703 19.237855 -6.136849
v 6.822960 21.020912 -8.479283
v 12.801971 13.168856 -16.815304
v 20.170686 9.002595 -8.508412
v 25.114061 0.315340 -11.946158
v 7.132411 2.563894 69.699861
v 7.132411 2.796477 4.406087
v 27.179310 40.137806 4.599620
v 32.122817 38.953664 5.311765
v 30.289874 35.474089 1.527492
v 26.668444 37.220836 1.681794
v 38.300160 -30.465477 10.273287
v 37.864530 -35.183137 9.889492
v 33.532092 -33.981766 11.483588
v 34.423794 -30.251979 11.565795
v 54.465268 32.989826 25.443759
v 54.338280 31.652183 24.589664
v 53.271510 31.866063 23.461421
v 53.069500 33.617525 24.081017
v 54.242873 -2.718644 15.495394
v 54.074031 -4.702832 15.210381
v 52.214926 -5.036699 14.278120
v 52.123973 -2.749386 14.969938
v -44.474000 -2.216034 4.940694
v -43.082417 3.292635 6.450695
v -39.203915 2.796853 4.940887
v -39.408812 -1.646286 5.273894
v 30.211916 10.080788 -7.617456
v 29.908462 7.544372 -7.289554
v 27.084289 7.169767 -9.304105
v 26.579759 8.533971 -8.839207
vt 0.786848 0.023701
vt 0.834718 0.023701
vt 0.828281 0.277636
vt 0.767206 0.279785
vt 0.887117 0.023701
vt 0.884723 0.277636
vt 0.834009 0.508944
vt 0.766800 0.511093
vt 0.706369 0.026706
vt 0.711323 0.281747
vt 0.934986 0.023701
vt 0.935863 0.277636
vt 0.883411 0.508944
vt 0.832009 0.731656
vt 0.789574 0.735954
vt 0.710092 0.511911
vt 0.970048 0.023701
vt 0.975513 0.279786
vt 0.928542 0.508944
vt 0.869956 0.731656
vt 0.843256 0.995199
vt 0.735515 0.738103
vt 0.961599 0.508944
vt 0.909080 0.735954
vt 0.950997 0.740252
vt 0.300297 0.023701
vt 0.351551 0.023701
vt 0.343824 0.277636
vt 0.273965 0.281935
vt 0.402804 0.023701
vt 0.407478 0.277636
vt 0.349343 0.508944
vt 0.283995 0.506674
vt 0.216124 0.023545
vt 0.206465 0.277481
vt 0.479464 0.032107
vt 0.476053 0.287236
vt 0.409808 0.508944
vt 0.354862 0.740252
vt 0.294273 0.746699
vt 0.214183 0.508788
vt 0.481598 0.517003
vt 0.397790 0.744550
vt 0.350447 0.978007
vt 0.227930 0.753147
vt 0.453095 0.748849
vt 0.648038 0.004902
vt 0.652049 0.010423
vt 0.637055 0.017099
vt 0.653468 0.017099
vt 0.642127 0.001489
vt 0.652049 0.023775
vt 0.635339 0.000776
vt 0.648038 0.029297
vt 0.628848 0.002885
vt 0.642127 0.032709
vt 0.623776 0.007452
vt 0.635339 0.033423
vt 0.621000 0.013687
vt 0.628848 0.031314
vt 0.621000 0.020512
vt 0.623776 0.026747
vt 0.550247 0.030738
vt 0.547705 0.285683
vt 0.634334 0.033365
vt 0.636805 0.284578
vt 0.550654 0.528373
vt 0.630659 0.518324
vt 0.564641 0.745275
vt 0.488073 0.753290
vt 0.633343 0.741324
vt 0.599601 0.992263
vt 0.700972 0.748198
vt 0.027017 0.023389
vt 0.076851 0.023389
vt 0.078018 0.277325
vt 0.012530 0.273026
vt 0.128964 0.023389
vt 0.126328 0.277325
vt 0.075397 0.508632
vt 0.017062 0.510902
vt 0.139284 0.513172
vt 0.086022 0.739940
vt 0.044868 0.742089
vt 0.126041 0.739940
vt 0.126450 0.969098
vt 0.197106 0.746388
vt 0.163309 0.376600
vt 0.175982 0.376625
vt 0.177202 0.413204
vt 0.165358 0.413897
vt 0.438011 0.376243
vt 0.450088 0.377933
vt 0.451064 0.418397
vt 0.438421 0.416977
vt 0.247434 0.132117
vt 0.260870 0.132141
vt 0.256667 0.173363
vt 0.245892 0.172652
vt 0.371274 0.127611
vt 0.380582 0.127611
vt 0.381430 0.173726
vt 0.369871 0.173726
vt 0.851997 0.374828
vt 0.861007 0.374828
vt 0.860798 0.411752
vt 0.852912 0.411752
vt 0.314646 0.610486
vt 0.323467 0.610793
vt 0.324212 0.642017
vt 0.316033 0.642887
vn 0.819559 -0.251493 0.514854
vn 0.241722 -0.316657 0.917224
vn 0.651847 -0.715295 0.251889
vn 0.897795 -0.371757 0.236137
vn 0.061339 -0.856439 0.512591
vn 0.171225 -0.946107 0.274887
vn 0.058533 -0.885508 0.460922
vn -0.080389 -0.974237 0.210712
vn -0.116607 -0.304284 0.945417
vn -0.422510 -0.905141 -0.046955
vn -0.764498 -0.435250 0.475500
vn -0.759000 -0.646119 -0.080305
vn -0.774341 -0.114459 0.622331
vn -0.980549 -0.166873 0.103326
vn -0.754912 0.233452 0.612869
vn -0.925231 0.337279 0.173753
vn -0.606865 0.365550 0.705754
vn -0.857132 0.486702 0.168658
vn -0.324997 0.681045 0.656167
vn -0.418323 0.862327 0.285302
vn -0.205136 0.851578 0.482425
vn -0.162699 0.964619 0.207461
vn -0.030534 0.691056 0.722156
vn 0.144417 0.985896 0.084572
vn 0.429536 0.530181 0.731031
vn 0.349572 0.933684 0.077675
vn 0.726390 0.310217 -0.613288
vn 0.726390 0.310217 -0.613288
vn 0.726390 0.310217 -0.613288
vn 0.726390 0.310217 -0.613288
vn 0.742741 0.120614 0.658626
vn 0.727297 -0.056842 0.683965
vn 0.997767 0.055345 -0.037397
vn 0.997767 0.055345 -0.037397
vn 0.320043 0.205655 -0.924813
vn 0.320043 0.205655 -0.924813
vn 0.320043 0.205655 -0.924813
vn 0.320043 0.205655 -0.924813
vn -0.314413 0.101470 -0.943848
vn -0.314413 0.101470 -0.943848
vn -0.314413 0.101470 -0.943848
vn -0.314413 0.101470 -0.943848
vn 0.222721 -0.807620 -0.546027
vn 0.151769 -0.798038 -0.583182
vn 0.100650 -0.756859 -0.645781
vn 0.310908 -0.607531 -0.730918
vn -0.139604 -0.786621 -0.601446
vn -0.126721 -0.703572 -0.699234
vn -0.451388 -0.764698 -0.459877
vn -0.364805 -0.749566 -0.552330
vn -0.725316 -0.600277 -0.337021
vn -0.584182 -0.471211 -0.660826
vn -0.832951 -0.423118 -0.356601
vn -0.798006 -0.145470 -0.584829
vn -0.130317 0.137041 -0.981956
vn -0.130317 0.137041 -0.981956
vn -0.130317 0.137041 -0.981956
vn -0.130317 0.137041 -0.981956
vn -0.908947 0.314129 -0.274112
vn -0.793644 0.492664 -0.356948
vn -0.720898 0.435010 -0.539512
vn -0.760282 0.057448 -0.647047
vn -0.348587 0.766141 -0.539921
vn -0.267605 0.718905 -0.641532
vn -0.141019 0.828665 -0.541690
vn -0.168401 0.767820 -0.618137
vn -0.219662 0.844436 -0.488546
vn -0.140288 0.755120 -0.640401
vn 0.268257 0.648304 -0.712559
vn 0.268257 0.648304 -0.712559
vn 0.268257 0.648304 -0.712559
vn 0.268257 0.648304 -0.712559
vn 0.816960 0.337487 -0.467631
vn 0.900038 0.136490 -0.413886
vn 0.863837 0.122711 -0.488598
vn 0.541555 0.428794 -0.723087
vn 0.955050 0.001410 -0.296443
vn 0.888891 -0.079402 -0.451185
vn 0.941197 0.174408 -0.289360
vn 0.830785 -0.041995 -0.555007
vn 0.247047 -0.357036 -0.900829
vn 0.513550 -0.100028 -0.852209
vn -0.097178 -0.519287 -0.849057
vn -0.123772 -0.383015 -0.915412
vn -0.086917 -0.594820 -0.799146
vn -0.335350 -0.186796 -0.923389
vn -0.516600 0.083983 -0.852098
vn -0.373896 0.001286 -0.927470
vn -0.408596 0.304629 -0.860378
vn -0.106141 0.462610 -0.880185
vn -0.135453 0.508785 -0.850171
vn -0.166196 0.568697 -0.805583
vn 0.231925 0.314393 -0.920526
vn 0.487568 -0.078688 -0.869532
vn 0.434577 0.053978 -0.899016
vn 0.434577 0.053978 -0.899016
vn 0.434577 0.053978 -0.899016
vn 0.434577 0.053978 -0.899016
vn 0.355296 -0.161028 -0.920779
vn 0.012852 0.011693 0.999849
vn -0.021588 -0.061659 -0.997864
vn 0.267240 0.913041 -0.308122
vn 0.267240 0.913041 -0.308122
vn 0.941162 -0.163381 -0.295840
vn 0.941162 -0.163381 -0.295840
vn 0.941162 -0.163381 -0.295840
vn 0.941162 -0.163381 -0.295840
vn -0.428544 -0.888353 -0.164859
vn -0.428544 -0.888353 -0.164859
vn -0.428544 -0.888353 -0.164859
vn -0.428544 -0.888353 -0.164859
vn -0.069508 0.868056 -0.491577
vn -0.069508 0.868056 -0.491577
vn -0.069508 0.868056 -0.491577
vn -0.069508 0.868056 -0.491577
vn 0.880819 -0.390776 -0.267305
vn 0.880819 -0.390776 -0.267305
vn 0.880819 -0.390776 -0.267305
vn 0.880819 -0.390776 -0.267305
vn 0.073569 -0.850608 -0.520628
vn 0.073569 -0.850608 -0.520628
vn 0.073569 -0.850608 -0.520628
vn 0.073569 -0.850608 -0.520628
vn 0.805229 -0.394480 -0.442709
vn 0.805229 -0.394480 -0.442709
vn 0.805229 -0.394480 -0.442709
vn 0.805229 -0.394480 -0.442709
vn 0.772066 -0.158805 -0.615382
vn 0.772066 -0.158805 -0.615382
vn 0.772066 -0.158805 -0.615382
vn 0.772066 -0.158805 -0.615382
vn 0.821873 0.167247 0.544568
vn 0.821873 0.167247 0.544568
vn 0.821873 0.167247 0.544568
vn 0.821873 0.167247 0.544568
vn 0.878985 -0.476839 -0.003124
vn 0.878985 -0.476839 -0.003124
vn 0.878985 -0.476839 -0.003124
vn 0.878985 -0.476839 -0.003124
vn -0.510089 -0.098492 -0.854464
vn -0.510089 -0.098492 -0.854464
vn -0.510089 -0.098492 -0.854464
vn -0.510089 -0.098492 -0.854464
vn 0.660399 0.657641 0.362466
vn 0.660399 0.657641 0.362466
vn 0.660399 0.657641 0.362466
vn 0.660399 0.657641 0.362466
vn 0.916998 -0.374416 0.137580
vn 0.916998 -0.374416 0.137580
vn 0.916998 -0.374416 0.137580
vn 0.916998 -0.374416 0.137580
vn 0.966747 -0.117225 0.227284
vn 0.966747 -0.117225 0.227284
vn 0.966747 -0.117225 0.227284
vn 0.966747 -0.117225 0.227284
vn -0.836792 -0.198697 -0.510195
vn -0.836792 -0.198697 -0.510195
vn -0.836792 -0.198697 -0.510195
vn -0.836792 -0.198697 -0.510195
vn 0.138179 0.987212 -0.079487
vn 0.138179 0.987212 -0.079487
vn 0.138179 0.987212 -0.079487
vn 0.138179 0.987212 -0.079487
vn -0.921386 0.301066 -0.245778
vn -0.921386 0.301066 -0.245778
vn -0.921386 0.301066 -0.245778
vn -0.921386 0.301066 -0.245778
vn -0.524814 0.718302 -0.456742
vn -0.524814 0.718302 -0.456742
vn -0.524814 0.718302 -0.456742
vn -0.524814 0.718302 -0.456742
vn 0.777359 -0.022394 -0.628658
vn 0.777359 -0.022394 -0.628658
vn 0.777359 -0.022394 -0.628658
vn 0.777359 -0.022394 -0.628658
vn -0.324675 -0.772140 -0.546247
vn -0.324675 -0.772140 -0.546247
vn -0.324675 -0.772140 -0.546247
vn -0.324675 -0.772140 -0.546247
vn 0.864438 -0.049973 -0.500250
vn 0.864438 -0.049973 -0.500250
vn 0.864438 -0.049973 -0.500250
vn 0.864438 -0.049973 -0.500250
vn 0.793856 -0.146286 -0.590249
vn 0.793856 -0.146286 -0.590249
vn 0.793856 -0.146286 -0.590249
vn 0.793856 -0.146286 -0.590249
vn -0.013270 0.355652 -0.934524
vn -0.013270 0.355652 -0.934524
vn -0.060592 0.907598 -0.415446
vn -0.060592 0.907598 -0.415446
vn -0.060592 0.907598 -0.415446
vn -0.060592 0.907598 -0.415446
s 1
g pCone2
usemtl initialShadingGroup
f 1/30/1 2/36/2 17/37/3 16/31/4
f 2/36/2 3/63/5 18/64/6 17/37/3
f 3/63/5 4/65/7 19/66/8 18/64/6
f 4/65/7 5/9/9 20/10/10 19/66/8
f 5/9/9 6/1/11 21/4/12 20/10/10
f 6/1/11 7/2/13 22/3/14 21/4/12
f 7/2/13 8/5/15 23/6/16 22/3/14
f 8/5/15 9/11/17 24/12/18 23/6/16
f 9/11/17 10/17/19 25/18/20 24/12/18
f 10/74/19 11/75/21 26/76/22 25/77/20
f 11/75/21 12/78/23 27/79/24 26/76/22
f 12/78/23 13/34/25 28/35/26 27/79/24
s off
f 71/96/27 72/97/28 73/98/29 74/99/30
s 1
f 14/26/31 15/27/32 30/28/33 29/29/34
s off
f 75/100/35 76/101/36 77/102/37 78/103/38
f 67/92/39 68/93/40 69/94/41 70/95/42
s 3
f 17/37/43 18/64/44 33/67/45 32/42/46
f 18/64/44 19/66/47 34/68/48 33/67/45
f 19/66/47 20/10/49 35/16/50 34/68/48
f 20/10/49 21/4/51 36/8/52 35/16/50
f 21/4/51 22/3/53 37/7/54 36/8/52
s off
f 79/104/55 80/105/56 81/106/57 82/107/58
s 3
f 23/6/59 24/12/60 39/19/61 38/13/62
f 24/12/60 25/18/63 40/23/64 39/19/61
f 25/77/63 26/76/65 41/80/66 40/81/64
f 26/76/65 27/79/67 42/82/68 41/80/66
s off
f 63/88/69 64/89/70 65/90/71 66/91/72
s 3
f 28/35/73 29/29/74 44/33/75 43/41/76
f 29/29/74 30/28/77 45/32/78 44/33/75
f 30/28/77 16/31/79 31/38/80 45/32/78
f 31/38/80 32/42/46 47/46/81 46/43/82
f 32/42/46 33/67/45 48/69/83 47/70/81
f 33/67/45 34/68/48 49/71/84 48/69/83
f 34/68/48 35/16/50 50/73/85 49/71/84
f 35/16/50 36/8/52 51/15/86 50/22/85
f 36/8/52 37/7/54 52/14/87 51/15/86
f 37/7/54 38/13/62 53/20/88 52/14/87
f 38/13/62 39/19/61 54/24/89 53/20/88
f 39/19/61 40/23/64 55/25/90 54/24/89
f 40/81/64 41/80/66 56/83/91 55/84/90
f 41/80/66 42/82/68 57/85/92 56/83/91
f 42/82/68 43/41/76 58/87/93 57/85/92
f 43/41/76 44/33/75 59/40/94 58/45/93
s off
f 83/108/95 84/109/96 85/110/97 86/111/98
s 3
f 45/32/78 31/38/80 46/43/82 60/39/99
s 1
f 2/47/2 1/48/1 61/49/100
f 3/51/5 2/47/2 61/49/100
f 4/53/7 3/51/5 61/49/100
f 5/55/9 4/53/7 61/49/100
f 6/57/11 5/55/9 61/49/100
f 7/59/13 6/57/11 61/49/100
f 8/61/15 7/59/13 61/49/100
f 9/62/17 8/61/15 61/49/100
f 10/60/19 9/62/17 61/49/100
f 11/58/21 10/60/19 61/49/100
f 12/56/23 11/58/21 61/49/100
f 13/54/25 12/56/23 61/49/100
f 14/52/31 13/54/25 61/49/100
f 15/50/32 14/52/31 61/49/100
f 1/48/1 15/50/32 61/49/100
s 3
f 46/43/82 47/46/81 62/44/101
f 47/70/81 48/69/83 62/72/101
f 48/69/83 49/71/84 62/72/101
f 49/71/84 50/73/85 62/72/101
f 50/22/85 51/15/86 62/21/101
f 51/15/86 52/14/87 62/21/101
f 52/14/87 53/20/88 62/21/101
f 53/20/88 54/24/89 62/21/101
f 54/24/89 55/25/90 62/21/101
f 55/84/90 56/83/91 62/86/101
f 56/83/91 57/85/92 62/86/101
f 57/85/92 58/87/93 62/86/101
f 58/45/93 59/40/94 62/44/101
f 59/40/94 60/39/99 62/44/101
f 60/39/99 46/43/82 62/44/101
s 1
f 27/79/24 28/35/26 64/89/102 63/88/103
s off
f 28/35/104 43/41/105 65/90/106 64/89/107
f 43/41/108 42/82/109 66/91/110 65/90/111
f 42/82/112 27/79/113 63/88/114 66/91/115
f 16/31/116 17/37/117 68/93/118 67/92/119
f 17/37/120 32/42/121 69/94/122 68/93/123
f 32/42/124 31/38/125 70/95/126 69/94/127
f 31/38/128 16/31/129 67/92/130 70/95/131
f 13/34/132 14/26/133 72/97/134 71/96/135
f 14/26/136 29/29/137 73/98/138 72/97/139
f 29/29/140 28/35/141 74/99/142 73/98/143
f 28/35/144 13/34/145 71/96/146 74/99/147
f 15/27/148 1/30/149 76/101/150 75/100/151
f 1/30/152 16/31/153 77/102/154 76/101/155
f 16/31/156 30/28/157 78/103/158 77/102/159
f 30/28/160 15/27/161 75/100/162 78/103/163
f 22/3/164 23/6/165 80/105/166 79/104/167
f 23/6/168 38/13/169 81/106/170 80/105/171
f 38/13/172 37/7/173 82/107/174 81/106/175
f 37/7/176 22/3/177 79/104/178 82/107/179
f 44/33/180 45/32/181 84/109/182 83/108/183
f 45/32/184 60/39/185 85/110/186 84/109/187
s 3
f 60/39/99 59/40/94 86/111/188 85/110/189
s off
f 59/40/190 44/33/191 83/108/192 86/111/193
