# This file uses centimeters as units for non-parametric coordinates.

mtllib spike02.mtl
g default
v 0.048686 1.046896 -0.353553
v 0.401858 1.030471 -0.000000
v 0.048686 1.046896 0.353553
v -0.304485 1.063320 0.000000
v 0.039790 0.435603 -0.532761
v 0.611138 0.289559 0.038573
v 0.013131 0.541925 0.539973
v -0.585827 0.660609 0.040309
v 0.005475 0.117724 -0.471404
v 0.476370 0.095825 -0.000000
v 0.005475 0.117724 0.471404
v -0.465421 0.139623 0.000000
v -0.013140 -0.282551 -0.278457
v 0.265016 -0.295487 -0.000000
v -0.027600 -0.281879 0.369995
v -0.291297 -0.269616 0.000000
v 0.025251 1.185220 0.023413
v -0.060376 -1.298265 0.000000
v -0.114759 1.054497 0.189931
v -0.326836 0.599770 0.386966
v -0.276872 0.206073 0.321457
v -0.200645 -0.273831 0.253302
v 0.214647 1.039178 -0.139153
v 0.269337 0.359801 -0.207870
v 0.205220 0.108435 -0.190433
v 0.138488 -0.289603 -0.126665
v 0.004703 0.101129 -0.397873
v -0.393074 0.119628 0.000334
v -0.234761 0.173749 0.274811
v 0.174989 0.093209 -0.161185
v 0.211964 0.134873 -0.192267
v 0.009084 0.151158 -0.477858
v -0.478085 0.194419 0.004240
v -0.282127 0.247481 0.328347
v 0.006280 0.162340 0.478616
v 0.490545 0.116201 0.004057
v 0.267289 0.385241 -0.205297
v 0.040123 0.458494 -0.526050
v -0.575291 0.675689 0.038799
v -0.318895 0.616798 0.379588
v 0.014462 0.560834 0.532992
v 0.603301 0.317303 0.037128
v 0.215765 1.025285 -0.140558
v 0.048504 1.034395 -0.357218
v -0.310239 1.055085 0.000824
v -0.119096 1.045198 0.193961
v 0.047959 1.036570 0.357366
v 0.406138 1.015320 0.000789
v 0.279439 -0.268785 -0.000000
v 0.140979 -0.263480 -0.129020
v -0.011923 -0.256370 -0.286606
v -0.298242 -0.243054 0.000023
v -0.202973 -0.243289 0.254770
v -0.025343 -0.254611 0.376915
v -0.233153 0.152655 0.273797
v 0.003916 0.098891 0.466625
v 0.466410 0.077383 -0.000000
v 0.173269 0.075168 -0.159559
v 0.003862 0.083047 -0.392245
v -0.388278 0.101283 0.000318
v -0.279038 -0.270186 -0.012272
v -0.285624 -0.243641 -0.012609
v -0.370996 0.100480 -0.016982
v -0.375544 0.118812 -0.017215
v -0.444668 0.138658 -0.020775
v -0.456615 0.192513 -0.017006
v -0.558256 0.650693 0.015054
v -0.548170 0.666118 0.013907
v -0.294429 1.054173 -0.014955
v -0.288921 1.062596 -0.015581
v 0.075888 1.045631 0.326323
v 0.075546 1.034933 0.329902
v 0.059815 0.542077 0.494801
v 0.059189 0.522488 0.501355
v 0.043578 0.158787 0.442066
v 0.041743 0.116037 0.435097
v 0.039537 0.097235 0.430686
v -0.001869 -0.255702 0.347885
v -0.005063 -0.282927 0.341498
v 0.456829 0.119413 0.037097
v 0.569503 0.307129 0.073482
v 0.562305 0.334259 0.071652
v 0.381200 1.016800 0.025615
v 0.377269 1.031615 0.024615
v 0.027019 1.174786 0.048316
v -0.290174 1.062655 0.014327
v -0.295820 1.054339 0.015393
v -0.555951 0.671247 0.064506
v -0.566290 0.656020 0.066458
v -0.463303 0.198422 0.028688
v -0.451198 0.144636 0.024248
v -0.381132 0.123710 0.021039
v -0.376576 0.105158 0.020948
v -0.291055 -0.243072 0.019239
v -0.284458 -0.269934 0.019107
v -0.057904 -1.221596 0.027910
v 0.244644 -0.294540 0.025760
v 0.258219 -0.267798 0.026242
v 0.434210 0.078880 0.032488
v 0.443585 0.097349 0.032820
v 0.457237 0.118434 -0.019416
v 0.570271 0.297957 0.009108
v 0.563127 0.325426 0.008144
v 0.383376 1.016512 -0.016111
v 0.379475 1.031512 -0.016637
v 0.028053 1.168682 -0.021658
v -0.302624 1.063234 -0.001863
v -0.308348 1.054976 -0.001062
v -0.572049 0.674545 0.035823
v -0.582530 0.659424 0.037289
v -0.475518 0.194191 0.001699
v -0.462940 0.139508 -0.002484
v -0.390978 0.119530 -0.001764
v -0.386211 0.101187 -0.001750
v -0.296733 -0.243124 -0.001487
v -0.289831 -0.269684 -0.001467
v -0.054729 -1.176824 -0.033293
v 0.249888 -0.294784 -0.015144
v 0.262884 -0.268150 -0.015426
v 0.431361 0.077118 -0.019077
v 0.440337 0.095512 -0.019272
v 0.443951 0.097332 -0.022769
v 0.011942 -0.257479 -0.262010
v 0.030303 0.081817 -0.355928
v 0.031281 0.099893 -0.360931
v 0.036651 0.116274 -0.427551
v 0.040749 0.148616 -0.433283
v 0.075617 0.423772 -0.482052
v 0.075579 0.447061 -0.475988
v 0.074610 1.032973 -0.323402
v 0.074589 1.045691 -0.320090
v 0.082902 1.147273 -0.020874
v 0.084031 1.161067 0.019759
v 0.081686 1.152440 0.044617
v 0.052932 1.046698 0.349303
v 0.052265 1.036314 0.353079
v 0.021541 0.557907 0.527031
v 0.020320 0.538891 0.533945
v 0.012101 0.161786 0.472912
v 0.011135 0.117461 0.465738
v 0.009476 0.098633 0.461016
v -0.021679 -0.254781 0.372384
v -0.024082 -0.282042 0.365547
v -0.010683 -1.076903 0.027574
v -0.009590 -1.141753 -0.000000
v -0.007185 -1.039157 -0.030460
v 0.010526 -0.283652 -0.254766
v -0.033025 -0.255388 -0.265481
v -0.025039 0.084391 -0.363313
v -0.024614 0.102492 -0.368525
v -0.029231 0.119338 -0.436662
v -0.026821 0.154346 -0.442327
v -0.006318 0.452187 -0.490525
v -0.005233 0.474502 -0.484420
v 0.022065 1.035920 -0.330830
v 0.022657 1.048106 -0.327496
v 0.002559 1.160552 -0.020132
v -0.000171 1.175822 0.021608
v 0.002564 1.166141 0.045696
v 0.036085 1.047482 0.340938
v 0.035080 1.037235 0.344767
v -0.011239 0.565149 0.521165
v -0.013080 0.546384 0.528176
v -0.015956 0.168904 0.467031
v -0.016294 0.124535 0.459844
v -0.013047 0.122043 0.456247
v -0.014362 0.103037 0.451759
v -0.039038 -0.253738 0.367498
v -0.040941 -0.281258 0.360998
v -0.075371 -1.148225 0.027231
v -0.078180 -1.218957 0.000000
v -0.072855 -1.106885 -0.030839
v -0.033641 -0.281598 -0.257934
vt 0.441902 0.136827
vt 0.435393 0.001992
vt 0.518463 0.020580
vt 0.518564 0.136827
vt 0.375893 0.015552
vt 0.406585 0.136827
vt 0.638981 0.020580
vt 0.602839 0.136827
vt 0.518564 0.444565
vt 0.848897 0.720313
vt 0.788379 0.635277
vt 0.797304 0.626425
vt 0.848897 0.698058
vt 0.706226 0.577642
vt 0.991568 0.577642
vt 0.969415 0.577541
vt 0.922314 0.494470
vt 0.935499 0.480353
vt 0.848897 0.434971
vt 0.127578 0.823493
vt 0.184299 0.781378
vt 0.234581 0.716489
vt 0.243611 0.830579
vt 0.341584 0.823493
vt 0.234581 0.930496
vt 0.284102 0.880975
vt 0.182670 0.001992
vt 0.232190 0.001992
vt 0.289913 0.142449
vt 0.186319 0.155157
vt 0.289673 0.001992
vt 0.369067 0.127697
vt 0.269272 0.260770
vt 0.182670 0.283511
vt 0.075666 0.001992
vt 0.001979 0.223045
vt 0.325341 0.283511
vt 0.039999 0.283511
vt 0.187051 0.404785
vt 0.098394 0.404785
vt 0.182670 0.712524
vt 0.581453 0.448531
vt 0.646342 0.448531
vt 0.625544 0.653154
vt 0.527216 0.633464
vt 0.688456 0.448531
vt 0.700130 0.669584
vt 0.630821 0.730050
vt 0.545785 0.730050
vt 0.688456 0.730050
vt 0.359880 0.716489
vt 0.466883 0.716489
vt 0.521120 0.901423
vt 0.347680 0.842194
vt 0.502551 0.998008
vt 0.359880 0.998008
vt 0.683127 0.123267
vt 0.729067 0.123267
vt 0.767403 0.123267
vt 0.767403 0.431005
vt 0.646986 0.007020
vt 0.718620 0.007020
vt 0.767403 0.001992
vt 0.630266 0.721962
vt 0.504504 0.987849
vt 0.543832 0.719891
vt 0.329940 0.267122
vt 0.358596 0.981620
vt 0.271443 0.248325
vt 0.183054 0.270011
vt 0.689684 0.723690
vt 0.036000 0.277151
vt 0.626323 0.645492
vt 0.519089 0.894498
vt 0.529247 0.626539
vt 0.366094 0.122990
vt 0.348137 0.837487
vt 0.287751 0.137189
vt 0.186183 0.149421
vt 0.699693 0.661307
vt 0.004739 0.214768
vt 0.645916 0.452715
vt 0.467992 0.720271
vt 0.580344 0.452313
vt 0.291296 0.004563
vt 0.359630 0.719060
vt 0.233370 0.004864
vt 0.182744 0.005124
vt 0.688695 0.453051
vt 0.074160 0.006512
vt 0.767403 0.114991
vt 0.094410 0.396510
vt 0.728354 0.115334
vt 0.605306 0.128894
vt 0.680661 0.115334
vt 0.518557 0.128894
vt 0.441458 0.127626
vt 0.186752 0.396510
vt 0.404491 0.128551
vt 0.435699 0.008347
vt 0.182876 0.289226
vt 0.377340 0.021267
vt 0.767403 0.007707
vt 0.042751 0.289226
vt 0.719112 0.012498
vt 0.637278 0.026058
vt 0.648689 0.012498
vt 0.518468 0.026058
vt 0.522278 0.136827
vt 0.522380 0.128894
vt 0.523704 0.026058
vt 0.964103 0.582852
vt 0.523774 0.020580
vt 0.985280 0.583929
vt 0.366167 0.998008
vt 0.365027 0.981894
vt 0.355324 0.844804
vt 0.355671 0.839999
vt 0.364406 0.719113
vt 0.364595 0.716489
vt 0.336869 0.818777
vt 0.174428 0.001992
vt 0.226340 0.922254
vt 0.174381 0.005231
vt 0.172208 0.154454
vt 0.172121 0.160386
vt 0.171728 0.270561
vt 0.171681 0.283511
vt 0.172084 0.289226
vt 0.179640 0.396510
vt 0.180222 0.404785
vt 0.046238 0.276654
vt 0.014813 0.218319
vt 0.017371 0.210218
vt 0.081720 0.006416
vt 0.083116 0.001992
vt 0.135028 0.830942
vt 0.242930 0.838116
vt 0.285337 0.001992
vt 0.337248 0.827829
vt 0.286927 0.004585
vt 0.360184 0.124061
vt 0.363096 0.128810
vt 0.325527 0.265705
vt 0.987338 0.570303
vt 0.321111 0.281795
vt 0.965862 0.571275
vt 0.512197 0.019178
vt 0.512224 0.024722
vt 0.512742 0.128798
vt 0.512782 0.136827
vt 0.183000 0.689310
vt 0.510117 0.421352
vt 0.104567 0.404785
vt 0.100839 0.396510
vt 0.052507 0.289226
vt 0.049932 0.283511
vt 0.682580 0.723483
vt 0.691213 0.667620
vt 0.690921 0.659416
vt 0.683580 0.453011
vt 0.683421 0.448531
vt 0.134360 0.818457
vt 0.242531 0.816938
vt 0.360443 0.716489
vt 0.341021 0.822929
vt 0.360201 0.719066
vt 0.349038 0.837787
vt 0.348594 0.842506
vt 0.359365 0.981653
vt 0.990816 0.578394
vt 0.360631 0.998008
vt 0.968780 0.578176
vt 0.519098 0.020580
vt 0.519094 0.026058
vt 0.519014 0.128894
vt 0.519008 0.136827
vt 0.528640 0.407771
vt 0.757326 0.394211
vt 0.762819 0.123267
vt 0.762734 0.115032
vt 0.761629 0.008280
vt 0.717115 0.583474
vt 0.761570 0.002593
vt 0.716048 0.584533
vt 0.681565 0.730050
vt 0.688105 0.115334
vt 0.659681 0.012498
vt 0.840844 0.686878
vt 0.658166 0.007020
vt 0.839451 0.707041
vt 0.559057 0.730050
vt 0.557323 0.720214
vt 0.542563 0.636538
vt 0.544398 0.629497
vt 0.590578 0.452376
vt 0.591581 0.448531
vt 0.226733 0.726617
vt 0.225648 0.817175
vt 0.225501 0.829473
vt 0.226089 0.836996
vt 0.181383 0.001992
vt 0.233295 0.929210
vt 0.181439 0.005141
vt 0.184001 0.150207
vt 0.184103 0.155973
vt 0.181286 0.270096
vt 0.180955 0.283511
vt 0.181192 0.289226
vt 0.185642 0.396510
vt 0.185985 0.404785
vt 0.170758 0.644902
vt 0.767403 0.382974
vt 0.169516 0.664492
vt 0.758184 0.351923
vt 0.690298 0.123267
vt 0.598912 0.128894
vt 0.628521 0.026058
vt 0.857779 0.689176
vt 0.630099 0.020580
vt 0.859412 0.709798
vt 0.492036 0.998008
vt 0.493750 0.987390
vt 0.508337 0.897058
vt 0.506490 0.890296
vt 0.460006 0.720182
vt 0.458997 0.716489
vt 0.242467 0.724376
vt 0.250125 0.817400
vt 0.251165 0.830032
vt 0.250202 0.837322
vt 0.186488 0.001992
vt 0.238399 0.926678
vt 0.186648 0.005104
vt 0.194013 0.148478
vt 0.194306 0.154177
vt 0.189868 0.268339
vt 0.855574 0.438470
vt 0.189347 0.281757
vt 0.854557 0.439558
vt 0.380481 0.014507
vt 0.381839 0.020271
vt 0.407341 0.128480
vt 0.409308 0.136827
vt 0.510323 0.399415
vt 0.518564 0.420839
vt 0.527898 0.386882
vt 0.596628 0.136827
vn 0.426969 0.830078 -0.358704
vn 0.418310 0.824028 -0.382092
vn 0.708533 0.133440 -0.692946
vn 0.808093 0.138249 -0.572602
vn 0.441106 0.801650 0.403464
vn 0.402600 0.840254 0.363161
vn 0.686012 0.220404 0.693405
vn 0.686010 0.221498 0.693058
vn 0.131074 0.911186 0.390589
vn -0.370668 0.833529 0.409676
vn -0.445090 0.430483 0.785226
vn -0.198928 0.358038 0.912270
vn -0.363566 0.840102 -0.402551
vn 0.134620 0.912430 -0.386457
vn 0.174658 0.275021 -0.945441
vn -0.624999 0.276898 -0.729866
vn 0.790092 -0.180749 -0.585734
vn 0.689045 -0.180832 -0.701796
vn 0.685921 -0.215991 -0.694881
vn 0.781911 -0.216434 -0.584612
vn 0.608304 -0.252263 0.752549
vn 0.622159 -0.207804 0.754808
vn 0.611289 -0.261247 0.747045
vn 0.604305 -0.281197 0.745483
vn -0.272157 -0.127478 0.953771
vn -0.456189 -0.140928 0.878653
vn -0.463610 -0.166176 0.870317
vn -0.184092 -0.156074 0.970439
vn -0.694215 -0.073205 -0.716035
vn -0.043412 -0.153318 -0.987223
vn 0.052097 -0.198456 -0.978724
vn -0.697314 -0.088621 -0.711267
vn 0.628303 -0.620484 -0.469292
vn 0.487151 -0.720706 -0.493221
vn 0.432366 -0.750014 -0.500538
vn 0.395723 -0.863348 -0.313103
vn -0.258409 -0.171430 0.950703
vn -0.510960 -0.602369 0.613247
vn -0.559237 -0.664976 0.495036
vn -0.620286 -0.508109 -0.597553
vn 0.026568 -0.661774 -0.749232
vn 0.005864 -0.947126 -0.320809
vn -0.359996 -0.876767 -0.318877
vn 0.438617 0.898338 -0.024572
vn 0.404460 0.821525 -0.401882
vn 0.376287 0.863574 -0.335632
vn 0.380097 0.924515 -0.028250
vn 0.380839 0.859665 0.340498
vn 0.375827 0.863907 0.335288
vn -0.344073 0.857047 0.383516
vn 0.104285 0.919903 0.378025
vn 0.114345 0.934024 -0.338414
vn -0.303855 0.888142 -0.344786
vn -0.346486 0.938046 -0.004218
vn 0.153811 0.985705 -0.068766
vn 0.684630 -0.222156 -0.694211
vn 0.684020 -0.222904 -0.694572
vn 0.948992 -0.314692 -0.019582
vn 0.948712 -0.307849 -0.071936
vn 0.754744 -0.249888 0.606562
vn 0.755405 -0.247374 0.606769
vn 0.755981 -0.245189 0.606939
vn 0.755976 -0.245308 0.606897
vn 0.199003 -0.341262 0.918661
vn -0.777418 -0.247803 0.578113
vn -0.796227 -0.227481 0.560602
vn 0.303323 -0.336196 0.891610
vn -0.968993 -0.219535 -0.113389
vn -0.702293 -0.157657 -0.694211
vn 0.229095 -0.267257 -0.935996
vn 0.722231 -0.641704 -0.258066
vn -0.358721 0.844476 0.397718
vn -0.369413 0.835068 0.407672
vn -0.620127 0.520006 0.587398
vn -0.542878 0.486068 0.684852
vn -0.675433 -0.199212 0.710003
vn -0.690627 -0.170636 0.702792
vn -0.811901 -0.181297 0.554931
vn -0.810825 -0.214158 0.544701
vn -0.442500 -0.795892 0.413218
vn -0.595765 -0.549644 0.585624
vn -0.602050 -0.635740 0.483084
vn -0.410228 -0.818428 0.402354
vn 0.962475 0.270104 -0.026172
vn 0.596556 0.127704 -0.792346
vn 0.833210 -0.552804 -0.013010
vn 0.549047 -0.206357 -0.809916
vn 0.557573 -0.168636 -0.812818
vn 0.843457 -0.500928 0.194042
vn 0.318822 -0.748932 -0.580907
vn 0.458819 -0.558063 -0.691412
vn 0.851696 -0.523249 -0.028723
vn 0.080756 -0.294207 -0.952324
vn -0.699844 -0.182399 -0.690615
vn -0.884789 -0.154907 0.439491
vn -0.776696 -0.135182 0.615199
vn -0.614133 -0.114123 0.780908
vn -0.361491 -0.199051 0.910880
vn 0.665565 -0.290329 0.687555
vn 0.669906 -0.273216 0.690346
vn 0.698795 -0.294471 0.651899
vn 0.695504 -0.306039 0.650088
vn 0.535139 -0.212541 -0.817590
vn 0.881993 -0.466391 0.067585
vn 0.650544 -0.188256 -0.735767
vn 0.757588 -0.181414 -0.627016
vn 0.809109 0.138473 -0.571112
vn 0.697584 0.132876 -0.704075
vn -0.623415 0.273379 -0.732542
vn 0.309203 0.263178 -0.913855
vn -0.536152 0.484927 0.690932
vn -0.621576 0.519643 0.586186
vn -0.153582 0.357781 0.921089
vn -0.436421 0.426943 0.791995
vn 0.685448 0.222061 0.693434
vn 0.685630 0.220332 0.693805
vn 0.596610 0.127674 -0.792310
vn 0.962453 0.270017 -0.027853
vn 0.548030 -0.209019 -0.809922
vn 0.884004 -0.467063 0.019718
vn 0.685073 -0.220818 -0.694200
vn 0.752205 -0.179369 -0.634046
vn 0.652202 -0.189948 -0.733861
vn 0.684623 -0.221573 -0.694404
vn -0.702149 -0.159254 -0.693992
vn -0.699844 -0.182399 -0.690615
vn 0.088532 -0.294211 -0.951631
vn 0.177899 -0.268708 -0.946651
vn -0.791757 -0.252381 0.556259
vn -0.775631 -0.135542 0.616462
vn -0.889595 -0.155254 0.429554
vn -0.806295 -0.245991 0.537938
vn -0.337263 -0.203165 0.919227
vn -0.609738 -0.114233 0.784328
vn 0.700254 -0.304029 0.645919
vn 0.702489 -0.296205 0.647126
vn -0.914053 -0.233449 0.331676
vn -0.699844 -0.182399 -0.690615
vn -0.702286 -0.157740 -0.694200
vn -0.973592 -0.221399 -0.055682
vn -0.904210 -0.230897 0.359292
vn -0.699844 -0.182399 -0.690615
vn -0.381566 -0.865464 0.324622
vn -0.359791 -0.876928 -0.318665
vn -0.668356 -0.626948 0.400296
vn -0.639382 -0.456319 -0.618840
vn -0.876721 -0.234127 0.420172
vn -0.698083 -0.105916 -0.708140
vn -0.860288 -0.203501 0.467431
vn -0.694731 -0.085047 -0.714224
vn -0.689492 0.532834 0.490600
vn -0.598888 0.341924 -0.724169
vn -0.695156 0.535683 0.479376
vn -0.601027 0.343240 -0.721771
vn -0.358378 0.933395 -0.018402
vn -0.306551 0.886190 -0.347410
vn 0.686027 0.210073 0.696590
vn 0.685573 0.210203 0.696997
vn 0.646649 -0.116705 0.753807
vn 0.645587 -0.141496 0.750464
vn 0.690437 -0.164271 0.704494
vn 0.712558 -0.232768 0.661876
vn 0.716829 -0.232372 0.657388
vn -0.329451 0.868823 -0.369608
vn -0.623173 0.281903 -0.729511
vn -0.620444 0.283065 -0.731385
vn -0.693119 -0.067525 -0.717654
vn -0.697291 -0.090623 -0.711036
vn -0.635144 -0.468221 -0.614297
vn -0.355645 -0.880163 -0.314373
vn -0.699844 -0.182399 -0.690615
vn -0.699844 -0.182399 -0.690615
vn -0.702215 -0.158519 -0.694093
s 1
g pPyramid1
usemtl initialShadingGroup
f 131/197/1 23/43/2 43/82/3 130/196/4
f 84/136/5 71/122/6 72/124/7 83/135/8
f 3/27/9 160/232/10 161/234/11 47/88/12
f 156/227/13 1/52/14 44/83/15 155/226/16
f 128/194/17 24/44/18 31/64/19 127/193/20
f 81/133/21 74/126/22 75/127/23 80/132/24
f 7/30/25 163/236/26 164/237/27 35/70/28
f 153/224/29 5/53/30 32/65/31 152/223/32
f 126/191/33 25/11/34 30/12/35 125/189/36
f 11/19/37 165/238/38 166/240/39
f 151/221/40 9/10/41 27/13/42 150/219/43
f 2/20/44 105/163/45 132/199/46 133/200/47
f 135/203/48 71/123/6 84/137/5 134/201/49
f 159/231/50 160/233/10 3/25/9 85/138/51
f 106/164/52 157/229/53 158/230/54 17/23/55
f 146/215/56 118/180/57 14/59/58 145/213/59
f 97/154/60 79/131/61 143/211/62 144/212/63
f 15/6/64 169/244/65 170/245/66 96/153/67
f 171/246/68 172/247/69 117/178/70 18/9/71
f 19/28/72 86/139/73 87/141/74 46/87/75
f 34/69/76 20/29/77 89/143/78 90/144/79
f 29/17/80 21/18/81 91/145/82 92/147/83
f 105/162/45 2/46/44 48/89/84 104/161/85
f 36/71/86 101/158/87 102/159/88 6/47/89
f 121/183/90 122/185/91 10/14/92
f 150/220/43 27/7/42 59/106/93 149/218/94
f 93/149/95 55/100/96 29/2/80 92/148/83
f 11/5/37 166/241/39 167/242/97 56/102/98
f 100/157/99 76/128/100 77/129/101 99/156/102
f 120/182/103 121/184/90 10/63/92 57/103/104
f 125/190/36 30/62/35 58/105/105 124/188/106
f 127/193/20 31/64/19 25/48/34 126/192/33
f 152/223/32 32/65/31 9/55/41 151/222/40
f 21/33/81 34/69/76 90/144/79 91/146/82
f 35/70/28 164/237/27 165/239/38 11/34/37
f 100/157/99 80/132/24 75/127/23 76/128/100
f 122/186/91 101/158/87 36/71/86 10/50/92
f 129/195/107 37/73/108 24/44/18 128/194/17
f 154/225/109 38/74/110 5/53/30 153/224/29
f 40/78/111 88/142/112 89/143/78 20/29/77
f 41/79/113 162/235/114 163/236/26 7/30/25
f 82/134/115 73/125/116 74/126/22 81/133/21
f 103/160/117 42/80/118 6/47/89 102/159/88
f 130/196/4 43/82/3 37/73/108 129/195/107
f 155/226/16 44/83/15 38/74/110 154/225/109
f 46/87/75 87/141/74 88/142/112 40/78/111
f 47/88/12 161/234/11 162/235/114 41/79/113
f 83/135/8 72/124/7 73/125/116 82/134/115
f 104/161/85 48/89/84 42/80/118 103/160/117
f 118/180/57 119/181/119 49/91/120 14/59/58
f 147/216/121 123/187/122 50/93/123 26/58/124
f 173/248/125 148/217/126 51/94/127 13/8/128
f 22/1/129 53/97/130 94/150/131 95/151/132
f 54/99/133 168/243/134 169/244/65 15/6/64
f 98/155/135 78/130/136 79/131/61 97/154/60
f 56/102/98 167/242/97 168/243/134 54/99/133
f 99/156/102 77/129/101 78/130/136 98/155/135
f 119/181/119 120/182/103 57/103/104 49/91/120
f 124/188/106 58/105/105 50/93/123 123/187/122
f 149/218/94 59/106/93 51/94/127 148/217/126
f 53/97/130 55/100/96 93/149/95 94/150/131
f 52/96/137 115/176/138 116/177/139 16/4/140
f 60/108/141 114/175/142 115/176/138 52/96/137
f 28/3/143 113/174/144 114/175/142 60/108/141
f 12/15/145 112/171/146 113/173/144 28/16/143
f 33/68/147 111/170/148 112/172/146 12/56/145
f 8/54/149 110/169/150 111/170/148 33/68/147
f 39/77/151 109/168/152 110/169/150 8/54/149
f 45/86/153 108/167/154 109/168/152 39/77/151
f 4/51/155 107/165/156 108/167/154 45/86/153
f 71/122/6 135/202/48 136/204/157 72/124/7
f 73/125/116 72/124/7 136/204/157 137/205/158
f 74/126/22 73/125/116 137/205/158 138/206/159
f 75/127/23 74/126/22 138/206/159 139/207/160
f 76/128/100 75/127/23 139/207/160 140/208/161
f 77/129/101 76/128/100 140/208/161 141/209/162
f 78/130/136 77/129/101 141/209/162 142/210/163
f 79/131/61 78/130/136 142/210/163 143/211/62
f 6/36/89 81/133/21 80/132/24 36/72/86
f 42/81/118 82/134/115 81/133/21 6/36/89
f 48/90/84 83/135/8 82/134/115 42/81/118
f 2/35/44 84/136/5 83/135/8 48/90/84
f 134/201/49 84/137/5 2/20/44 133/200/47
f 158/230/54 159/231/50 85/138/51 17/23/55
f 87/141/74 86/139/73 4/31/155 45/85/153
f 88/142/112 87/141/74 45/85/153 39/76/151
f 89/143/78 88/142/112 39/76/151 8/32/149
f 90/144/79 89/143/78 8/32/149 33/67/147
f 91/146/82 90/144/79 33/67/147 12/37/145
f 92/147/83 91/145/82 12/15/145 28/16/143
f 60/108/141 93/149/95 92/148/83 28/3/143
f 94/150/131 93/149/95 60/108/141 52/96/137
f 95/151/132 94/150/131 52/96/137 16/4/140
f 96/153/67 170/245/66 171/246/68 18/9/71
f 14/40/58 97/154/60 144/212/63 145/214/59
f 49/92/120 98/155/135 97/154/60 14/40/58
f 57/104/104 99/156/102 98/155/135 49/92/120
f 10/38/92 100/157/99 99/156/102 57/104/104
f 36/72/86 80/132/24 100/157/99 10/38/92
f 101/158/87 31/64/19 24/44/18 102/159/88
f 37/73/108 103/160/117 102/159/88 24/44/18
f 43/82/3 104/161/85 103/160/117 37/73/108
f 23/43/2 105/162/45 104/161/85 43/82/3
f 132/199/46 105/163/45 23/21/2 131/198/1
f 1/22/14 156/228/13 157/229/53 106/164/52
f 108/167/154 107/165/156 70/120/164 69/119/165
f 109/168/152 108/167/154 69/119/165 68/118/166
f 110/169/150 109/168/152 68/118/166 67/117/167
f 111/170/148 110/169/150 67/117/167 66/116/168
f 112/172/146 111/170/148 66/116/168 65/115/169
f 113/173/144 112/171/146 65/114/169 64/112/170
f 114/175/142 113/174/144 64/113/170 63/111/171
f 115/176/138 114/175/142 63/111/171 62/110/172
f 116/177/139 115/176/138 62/110/172 61/109/173
f 117/178/70 172/247/69 173/248/125 13/8/128
f 147/216/121 26/58/124 118/180/57 146/215/56
f 26/58/124 50/93/123 119/181/119 118/180/57
f 50/93/123 58/105/105 120/182/103 119/181/119
f 58/105/105 30/62/35 121/184/90 120/182/103
f 30/12/35 25/11/34 122/185/91 121/183/90
f 25/48/34 31/64/19 101/158/87 122/186/91
f 59/107/93 124/188/106 123/187/122 51/95/127
f 27/61/42 125/190/36 124/188/106 59/107/93
f 9/10/41 126/191/33 125/189/36 27/13/42
f 32/66/31 127/193/20 126/192/33 9/49/41
f 5/45/30 128/194/17 127/193/20 32/66/31
f 38/75/110 129/195/107 128/194/17 5/45/30
f 44/84/15 130/196/4 129/195/107 38/75/110
f 1/42/14 131/197/1 130/196/4 44/84/15
f 106/164/52 132/199/46 131/198/1 1/22/14
f 133/200/47 132/199/46 106/164/52 17/23/55
f 85/138/51 134/201/49 133/200/47 17/23/55
f 3/25/9 135/203/48 134/201/49 85/138/51
f 136/204/157 135/202/48 3/27/9 47/88/12
f 137/205/158 136/204/157 47/88/12 41/79/113
f 138/206/159 137/205/158 41/79/113 7/30/25
f 139/207/160 138/206/159 7/30/25 35/70/28
f 140/208/161 139/207/160 35/70/28 11/34/37
f 141/209/162 140/208/161 11/34/37 56/101/98
f 142/210/163 141/209/162 56/101/98 54/98/133
f 143/211/62 142/210/163 54/98/133 15/39/64
f 144/212/63 143/211/62 15/39/64 96/152/67
f 145/214/59 144/212/63 96/152/67 18/41/71
f 117/179/70 146/215/56 145/213/59 18/60/71
f 13/57/128 147/216/121 146/215/56 117/179/70
f 51/95/127 123/187/122 147/216/121 13/57/128
f 63/111/171 149/218/94 148/217/126 62/110/172
f 64/113/170 150/220/43 149/218/94 63/111/171
f 65/114/169 151/221/40 150/219/43 64/112/170
f 66/116/168 152/223/32 151/222/40 65/115/169
f 67/117/167 153/224/29 152/223/32 66/116/168
f 68/118/166 154/225/109 153/224/29 67/117/167
f 69/119/165 155/226/16 154/225/109 68/118/166
f 70/120/164 156/227/13 155/226/16 69/119/165
f 157/229/53 156/228/13 70/121/164 107/166/156
f 158/230/54 157/229/53 107/166/156 4/24/155
f 4/24/155 86/140/73 159/231/50 158/230/54
f 86/140/73 19/26/72 160/233/10 159/231/50
f 161/234/11 160/232/10 19/28/72 46/87/75
f 162/235/114 161/234/11 46/87/75 40/78/111
f 163/236/26 162/235/114 40/78/111 20/29/77
f 164/237/27 163/236/26 20/29/77 34/69/76
f 165/239/38 164/237/27 34/69/76 21/33/81
f 166/240/39 165/238/38 21/18/81 29/17/80
f 167/242/97 166/241/39 29/2/80 55/100/96
f 168/243/134 167/242/97 55/100/96 53/97/130
f 169/244/65 168/243/134 53/97/130 22/1/129
f 170/245/66 169/244/65 22/1/129 95/151/132
f 171/246/68 170/245/66 95/151/132 16/4/140
f 16/4/140 116/177/139 172/247/69 171/246/68
f 173/248/125 172/247/69 116/177/139 61/109/173
f 62/110/172 148/217/126 173/248/125 61/109/173
